<svg width="40" height="40" viewBox="0 0 40 40" fill="none" xmlns="http://www.w3.org/2000/svg">
<g clip-path="url(#clip0_32309_167)">
<path d="M32 0H8C3.58172 0 0 3.58172 0 8V32C0 36.4183 3.58172 40 8 40H32C36.4183 40 40 36.4183 40 32V8C40 3.58172 36.4183 0 32 0Z" fill="white"/>
<path d="M31.7313 17.8436L25.4212 17.7992L29.9144 13.368C30.7953 12.4992 30.8047 11.0823 29.9359 10.2028C29.0672 9.32193 27.6503 9.3125 26.7708 10.1812L22.2776 14.6125L22.322 8.28617C22.3301 7.05243 21.3334 6.04766 20.0983 6.04766C18.8619 6.03957 17.8531 7.03492 17.8436 8.27001L17.7992 14.5802L13.368 10.087C12.4992 9.2061 11.0823 9.19667 10.2028 10.0654C9.32192 10.9341 9.3125 12.3511 10.1812 13.2306L14.6125 17.7238L8.30234 17.6793C7.0659 17.6712 6.05708 18.6666 6.04766 19.9017C6.03957 21.1381 7.03492 22.1469 8.27001 22.1564L14.5802 22.2008L10.087 26.632C9.20609 27.5008 9.19666 28.9177 10.0654 29.7972C10.9341 30.6781 12.3511 30.6875 13.2306 29.8188L17.7238 25.3875L17.6793 31.6977C17.6712 32.9341 18.6666 33.9429 19.9017 33.9523C21.1381 33.9604 22.1469 32.9651 22.1564 31.73L22.2008 25.4199L26.632 29.913C27.5008 30.7939 28.9177 30.8033 29.7972 29.9346C30.6781 29.0659 30.6875 27.6489 29.8188 26.7694L25.3875 22.2762L31.6977 22.3207C32.9341 22.3288 33.9429 21.3334 33.9523 20.0983C33.9604 18.8619 32.9651 17.8531 31.73 17.8436H31.7313Z" fill="#00AF98"/>
</g>
<defs>
<clipPath id="clip0_32309_167">
<rect width="40" height="40" fill="white"/>
</clipPath>
</defs>
</svg>
