<svg width="24" height="24" viewBox="0 0 24 24" fill="none" xmlns="http://www.w3.org/2000/svg">
<path d="M11.9854 22.0812C11.2943 22.0812 10.7338 21.5173 10.7338 20.8262L10.7442 14.2074C10.7442 13.8751 10.5906 13.5725 10.3224 13.3765C10.1447 13.247 9.9373 13.1794 9.72069 13.1794C9.61295 13.1794 9.50636 13.1966 9.40321 13.2298L3.10536 15.2653C2.97928 15.3054 2.84977 15.326 2.71911 15.326C2.17357 15.326 1.6945 14.9776 1.52716 14.4573C1.31513 13.7994 1.67731 13.0923 2.33402 12.8791L8.63188 10.8436C8.94821 10.7416 9.18775 10.5021 9.2909 10.1857C9.39405 9.87056 9.34132 9.53475 9.14648 9.26542L5.26462 3.90507C5.10875 3.68961 5.02623 3.43632 5.02623 3.17157C5.02623 2.77043 5.21992 2.38992 5.54427 2.15497C5.75859 1.9991 6.01303 1.91772 6.27778 1.91772C6.68006 1.91772 7.06057 2.11142 7.29438 2.43576L11.1774 7.7961C11.3722 8.06544 11.6736 8.22017 12.006 8.22017C12.3395 8.22017 12.641 8.06659 12.8358 7.7984L16.7349 2.44952C16.9698 2.12631 17.3492 1.93377 17.7492 1.93377C18.0151 1.93377 18.2695 2.01743 18.4861 2.17445C19.0443 2.58132 19.168 3.36755 18.7612 3.9257L14.8621 9.27459C14.6661 9.54277 14.6134 9.87859 14.7154 10.1938C14.8174 10.5101 15.057 10.7496 15.3733 10.8528L21.6654 12.9077C22.1823 13.0774 22.5307 13.5553 22.5307 14.0985C22.5307 14.2303 22.5101 14.361 22.4688 14.4882C22.3004 15.0051 21.8201 15.3524 21.2757 15.3524C21.1439 15.3524 21.0133 15.3318 20.8872 15.2905L14.5951 13.2355C14.4908 13.2011 14.383 13.184 14.2742 13.184C14.0587 13.184 13.8524 13.2516 13.6748 13.3799C13.4054 13.5748 13.2507 13.8774 13.2507 14.2097L13.2404 20.8285C13.2404 21.5184 12.6776 22.08 11.9865 22.08H11.9842L11.9854 22.0812Z" fill="#B3B3C1"/>
<path d="M23.4911 12.5191C23.1519 12.0435 22.6785 11.6962 22.1215 11.514L16.7234 9.75126C16.5675 9.70084 16.5068 9.51288 16.603 9.38107L19.9485 4.79206C20.8322 3.57948 20.5651 1.87407 19.3525 0.989278C18.8838 0.647738 18.3302 0.466654 17.7514 0.466654C17.3319 0.466654 16.9113 0.565218 16.5366 0.752033C16.148 0.945725 15.8076 1.2334 15.5509 1.58526L12.2066 6.17427C12.1103 6.30607 11.9132 6.30607 11.8169 6.17427L8.48629 1.57494C7.97627 0.870085 7.15108 0.449463 6.28118 0.449463C5.70469 0.449463 5.15341 0.628253 4.6858 0.966355C3.98095 1.47637 3.56033 2.30157 3.56033 3.17261C3.56033 3.7491 3.73912 4.30038 4.07837 4.76799L7.40895 9.36732C7.50523 9.50027 7.44334 9.68708 7.28861 9.73751L1.88472 11.4842C0.456666 11.9461 -0.329561 13.483 0.13232 14.911C0.313405 15.4692 0.659527 15.9448 1.13631 16.2864C1.60277 16.6199 2.15061 16.7964 2.72138 16.7964C3.00446 16.7964 3.28641 16.7517 3.55918 16.6634L8.96193 14.9168C9.1178 14.8663 9.27711 14.9821 9.27711 15.146L9.26794 20.8249C9.26565 22.3252 10.4851 23.5481 11.9865 23.5504H11.9888C12.7154 23.5504 13.3974 23.2685 13.912 22.755C14.4254 22.2415 14.7097 21.5596 14.7108 20.833L14.72 15.1552C14.72 14.9913 14.8804 14.8755 15.0352 14.9271L20.4333 16.6898C20.7072 16.7792 20.9915 16.825 21.278 16.825C21.8476 16.825 22.3943 16.6497 22.8596 16.3173C23.3353 15.9781 23.6825 15.5047 23.8648 14.9477C23.9542 14.6738 24 14.3896 24 14.103C24 13.5334 23.8246 12.9867 23.4923 12.5214L23.4911 12.5191ZM23.2424 14.7437C22.8883 15.8279 21.7181 16.4216 20.6339 16.0675L14.3418 14.0125C14.2776 13.9919 14.2077 14.0022 14.1526 14.0423C14.0976 14.0824 14.0655 14.1443 14.0655 14.2131L14.0552 20.8318C14.0541 21.9711 13.1257 22.8971 11.9865 22.8971H11.9842C10.8438 22.8948 9.91663 21.9665 9.91893 20.8261L9.92924 14.2073C9.92924 14.1386 9.8983 14.0767 9.84214 14.0366C9.78713 13.9964 9.71836 13.985 9.65303 14.0068L3.35517 16.0422C3.14773 16.1087 2.9334 16.1431 2.71908 16.1431C2.28471 16.1431 1.86867 16.009 1.51453 15.7557C1.15236 15.4967 0.88875 15.1357 0.751217 14.7105C0.400509 13.6251 0.99763 12.4572 2.08299 12.1065L8.38085 10.071C8.44618 10.0504 8.49546 10.0011 8.51609 9.93579C8.53672 9.87046 8.52641 9.8017 8.48629 9.74668L4.60328 4.38634C4.34541 4.03105 4.21017 3.61157 4.21017 3.17491C4.21017 2.51246 4.52993 1.88668 5.06516 1.49815C5.98892 0.828824 7.28517 1.03627 7.95335 1.96003L11.8352 7.32152C11.8753 7.37654 11.9372 7.40862 12.006 7.40862C12.0748 7.40862 12.1366 7.37768 12.1768 7.32152L16.0758 1.97264C16.4643 1.4397 17.089 1.12223 17.7491 1.12223C18.1892 1.12223 18.6099 1.25976 18.9663 1.51878C19.8878 2.1904 20.0906 3.48664 19.419 4.40811L15.52 9.757C15.4798 9.81201 15.4684 9.88078 15.4902 9.9461C15.5108 10.0114 15.5601 10.0607 15.6254 10.0813L21.9175 12.1363C22.7714 12.4148 23.3444 13.2056 23.3444 14.1019C23.3444 14.3196 23.31 14.5351 23.2413 14.7449L23.2424 14.7437Z" fill="#B3B3C1"/>
</svg>
