<svg width="25" height="25" viewBox="0 0 25 25" fill="none" xmlns="http://www.w3.org/2000/svg">
<path d="M22.4403 10.7357L17.0132 10.6975L20.8776 6.88633C21.6352 6.13916 21.6433 4.92051 20.8962 4.16407C20.149 3.40647 18.9303 3.39836 18.1739 4.14553L14.3095 7.9567L14.3477 2.51565C14.3546 1.45455 13.4974 0.590374 12.4351 0.590374C11.3717 0.583424 10.5041 1.43949 10.496 2.50175L10.4577 7.9289L6.64658 4.06444C5.89941 3.30685 4.68076 3.29874 3.92432 4.04591C3.16672 4.79308 3.15861 6.01173 3.90578 6.76817L7.71695 10.6326L2.2898 10.5944C1.22638 10.5874 0.358737 11.4435 0.350628 12.5058C0.343678 13.5692 1.19974 14.4368 2.262 14.4449L7.68915 14.4832L3.8247 18.2943C3.0671 19.0415 3.05899 20.2602 3.80616 21.0166C4.55334 21.7742 5.77198 21.7823 6.52842 21.0351L10.3929 17.224L10.3546 22.6511C10.3477 23.7145 11.2038 24.5822 12.266 24.5903C13.3294 24.5972 14.1971 23.7412 14.2052 22.6789L14.2434 17.2518L18.0546 21.1162C18.8018 21.8738 20.0204 21.8819 20.7769 21.1348C21.5345 20.3876 21.5426 19.1689 20.7954 18.4125L16.9842 14.548L22.4114 14.5863C23.4748 14.5932 24.3424 13.7372 24.3505 12.6749C24.3575 11.6115 23.5014 10.7438 22.4392 10.7357H22.4403Z" fill="#B3B3C1"/>
</svg>
