<svg width="82" height="50" viewBox="0 0 52 20" fill="none" xmlns="http://www.w3.org/2000/svg">
<path d="M50.3279 8.89593C49.9919 8.89593 49.7399 8.81993 49.5719 8.66793C49.4039 8.50793 49.3199 8.28793 49.3199 8.00793C49.3199 7.72793 49.4279 7.49593 49.6439 7.31193C49.8679 7.11993 50.1439 7.02393 50.4719 7.02393C50.7679 7.02393 51.0079 7.09593 51.1919 7.23993C51.3759 7.38393 51.4679 7.58793 51.4679 7.85193C51.4679 8.17193 51.3639 8.42793 51.1559 8.61993C50.9479 8.80393 50.6719 8.89593 50.3279 8.89593ZM49.1759 15.3399C48.9199 15.3399 48.7439 15.2879 48.6479 15.1839C48.5519 15.0799 48.5039 14.9159 48.5039 14.6919C48.5039 14.6279 48.5119 14.5159 48.5279 14.3559C48.6559 12.8919 48.8679 11.5599 49.1639 10.3599C49.2279 10.1119 49.3319 9.93993 49.4759 9.84393C49.6279 9.73993 49.8679 9.68793 50.1959 9.68793C50.5399 9.68793 50.7119 9.82793 50.7119 10.1079C50.7119 10.1479 50.7039 10.2239 50.6879 10.3359C50.3279 12.0479 50.1119 13.4839 50.0399 14.6439C50.0239 14.8999 49.9479 15.0799 49.8119 15.1839C49.6759 15.2879 49.4639 15.3399 49.1759 15.3399Z" fill="white"/>
<path d="M39.724 15.34C39.052 15.34 38.544 15.156 38.2 14.788C37.856 14.412 37.684 13.912 37.684 13.288C37.684 12.936 37.736 12.508 37.84 12.004L38.584 8.572C38.6 8.508 38.636 8.332 38.692 8.044C38.756 7.756 38.788 7.444 38.788 7.108C38.788 6.916 38.748 6.772 38.668 6.676C38.596 6.58 38.496 6.532 38.368 6.532C38.128 6.532 37.848 6.648 37.528 6.88C37.208 7.104 36.872 7.452 36.52 7.924C36.408 8.076 36.284 8.152 36.148 8.152C36.036 8.152 35.936 8.1 35.848 7.996C35.768 7.884 35.728 7.76 35.728 7.624C35.728 7.376 35.84 7.096 36.064 6.784C36.88 5.664 37.836 5.104 38.932 5.104C39.42 5.104 39.8 5.252 40.072 5.548C40.352 5.844 40.492 6.28 40.492 6.856C40.492 7.264 40.464 7.64 40.408 7.984C40.352 8.328 40.256 8.796 40.12 9.388L39.628 11.584C39.612 11.656 39.584 11.784 39.544 11.968C39.504 12.152 39.472 12.328 39.448 12.496C39.424 12.656 39.412 12.816 39.412 12.976C39.412 13.232 39.484 13.436 39.628 13.588C39.772 13.74 39.976 13.816 40.24 13.816C40.72 13.816 41.204 13.56 41.692 13.048C42.188 12.536 42.644 11.712 43.06 10.576C43.484 9.432 43.812 7.972 44.044 6.196C44.1 5.788 44.18 5.504 44.284 5.344C44.396 5.184 44.608 5.104 44.92 5.104C45.2 5.104 45.408 5.188 45.544 5.356C45.68 5.524 45.748 5.796 45.748 6.172C45.748 6.388 45.72 6.672 45.664 7.024C45.616 7.376 45.54 7.868 45.436 8.5C45.22 9.724 45.048 10.848 44.92 11.872C44.856 12.336 44.824 12.68 44.824 12.904C44.824 13.232 44.896 13.484 45.04 13.66C45.192 13.828 45.392 13.912 45.64 13.912C45.904 13.912 46.16 13.824 46.408 13.648C46.664 13.472 46.964 13.18 47.308 12.772C47.404 12.66 47.512 12.604 47.632 12.604C47.736 12.604 47.816 12.652 47.872 12.748C47.936 12.844 47.968 12.976 47.968 13.144C47.968 13.456 47.892 13.704 47.74 13.888C47.324 14.392 46.912 14.76 46.504 14.992C46.096 15.224 45.668 15.34 45.22 15.34C44.556 15.34 44.048 15.172 43.696 14.836C43.344 14.492 43.168 14.048 43.168 13.504C43.168 13.2 43.232 12.608 43.36 11.728C42.96 12.904 42.452 13.8 41.836 14.416C41.228 15.032 40.524 15.34 39.724 15.34Z" fill="white"/>
<path d="M33.2257 15.3399C32.8737 15.3399 32.6057 15.2439 32.4217 15.0519C32.2457 14.8599 32.1577 14.6079 32.1577 14.2959C32.1577 13.9359 32.2577 13.6479 32.4577 13.4319C32.6657 13.2159 32.9537 13.1079 33.3217 13.1079C33.6737 13.1079 33.9377 13.1959 34.1137 13.3719C34.2977 13.5399 34.3897 13.7919 34.3897 14.1279C34.3897 14.4959 34.2857 14.7919 34.0777 15.0159C33.8697 15.2319 33.5857 15.3399 33.2257 15.3399Z" fill="white"/>
<path d="M29.3256 14.032C29.6536 14.096 29.8176 14.276 29.8176 14.572C29.8176 14.772 29.7256 14.952 29.5416 15.112C29.3656 15.264 29.1096 15.34 28.7736 15.34C28.1976 15.34 27.7256 15.164 27.3576 14.812C26.9976 14.452 26.8176 13.984 26.8176 13.408C26.8176 13.096 26.9776 12.872 27.2976 12.736C27.6496 12.584 27.9016 12.424 28.0536 12.256C28.2056 12.08 28.2816 11.868 28.2816 11.62C28.2816 11.476 28.2496 11.368 28.1856 11.296C28.1296 11.224 28.0576 11.188 27.9696 11.188C27.7536 11.188 27.5136 11.344 27.2496 11.656C26.9936 11.968 26.7536 12.372 26.5296 12.868C26.3056 13.356 26.1296 13.86 26.0016 14.38C25.9136 14.756 25.8096 15.012 25.6896 15.148C25.5776 15.276 25.3976 15.34 25.1496 15.34C24.9016 15.34 24.7176 15.252 24.5976 15.076C24.4856 14.892 24.4096 14.612 24.3696 14.236C24.3296 13.86 24.3096 13.308 24.3096 12.58C24.3096 11.348 24.4336 10.064 24.6816 8.728C24.9376 7.392 25.3096 6.272 25.7976 5.368C26.2936 4.456 26.8856 4 27.5736 4C27.9416 4 28.2376 4.16 28.4616 4.48C28.6936 4.792 28.8096 5.2 28.8096 5.704C28.8096 6.512 28.5736 7.352 28.1016 8.224C27.6296 9.088 26.8616 10.1 25.7976 11.26C25.7736 11.676 25.7616 12.104 25.7616 12.544C26.1456 11.544 26.5856 10.82 27.0816 10.372C27.5776 9.916 28.0416 9.688 28.4736 9.688C28.8736 9.688 29.1936 9.824 29.4336 10.096C29.6816 10.368 29.8056 10.704 29.8056 11.104C29.8056 11.544 29.6936 11.948 29.4696 12.316C29.2456 12.684 28.8616 13.012 28.3176 13.3C28.3656 13.54 28.4616 13.708 28.6056 13.804C28.7576 13.892 28.9976 13.968 29.3256 14.032ZM27.3216 5.188C27.1776 5.188 27.0176 5.396 26.8416 5.812C26.6656 6.22 26.4936 6.776 26.3256 7.48C26.1656 8.176 26.0336 8.936 25.9296 9.76C26.4256 9.176 26.8336 8.54 27.1536 7.852C27.4816 7.164 27.6456 6.54 27.6456 5.98C27.6456 5.724 27.6176 5.528 27.5616 5.392C27.5056 5.256 27.4256 5.188 27.3216 5.188Z" fill="white"/>
<path d="M20.4195 15.34C19.6355 15.34 19.0235 15.12 18.5835 14.68C18.1515 14.232 17.9355 13.644 17.9355 12.916C17.9355 12.268 18.0635 11.7 18.3195 11.212C18.5755 10.724 18.9075 10.348 19.3155 10.084C19.7235 9.81999 20.1515 9.68799 20.5995 9.68799C21.0395 9.68799 21.3795 9.81999 21.6195 10.084C21.8675 10.34 21.9915 10.672 21.9915 11.08C21.9915 11.416 21.9155 11.7 21.7635 11.932C21.6195 12.164 21.4275 12.28 21.1875 12.28C21.0355 12.28 20.9115 12.244 20.8155 12.172C20.7275 12.1 20.6835 12 20.6835 11.872C20.6835 11.816 20.6915 11.752 20.7075 11.68C20.7235 11.608 20.7355 11.556 20.7435 11.524C20.7835 11.404 20.8035 11.292 20.8035 11.188C20.8035 11.084 20.7755 11.004 20.7195 10.948C20.6715 10.892 20.5995 10.864 20.5035 10.864C20.3195 10.864 20.1475 10.948 19.9875 11.116C19.8275 11.276 19.6995 11.496 19.6035 11.776C19.5075 12.056 19.4595 12.364 19.4595 12.7C19.4595 13.628 19.8635 14.092 20.6715 14.092C20.9995 14.092 21.3515 13.984 21.7275 13.768C22.1115 13.544 22.4875 13.212 22.8555 12.772C22.9515 12.66 23.0595 12.604 23.1795 12.604C23.2835 12.604 23.3635 12.652 23.4195 12.748C23.4835 12.844 23.5155 12.976 23.5155 13.144C23.5155 13.448 23.4395 13.696 23.2875 13.888C22.9115 14.352 22.4595 14.712 21.9315 14.968C21.4115 15.216 20.9075 15.34 20.4195 15.34Z" fill="white"/>
<path d="M12.2868 15.3401C11.7908 15.3401 11.3948 15.1601 11.0988 14.8001C10.8028 14.4401 10.6548 13.9681 10.6548 13.3841C10.6548 12.7441 10.8028 12.1401 11.0988 11.5721C11.3948 10.9961 11.7868 10.5361 12.2748 10.1921C12.7708 9.84006 13.2948 9.66406 13.8468 9.66406C14.0228 9.66406 14.1388 9.70006 14.1948 9.77206C14.2588 9.83606 14.3108 9.95606 14.3508 10.1321C14.5188 10.1001 14.6948 10.0841 14.8788 10.0841C15.2708 10.0841 15.4668 10.2241 15.4668 10.5041C15.4668 10.6721 15.4068 11.0721 15.2868 11.7041C15.1028 12.6241 15.0108 13.2641 15.0108 13.6241C15.0108 13.7441 15.0388 13.8401 15.0948 13.9121C15.1588 13.9841 15.2388 14.0201 15.3348 14.0201C15.4868 14.0201 15.6708 13.9241 15.8868 13.7321C16.1028 13.5321 16.3948 13.2121 16.7628 12.7721C16.8588 12.6601 16.9668 12.6041 17.0868 12.6041C17.1908 12.6041 17.2708 12.6521 17.3268 12.7481C17.3908 12.8441 17.4228 12.9761 17.4228 13.1441C17.4228 13.4641 17.3468 13.7121 17.1948 13.8881C16.8668 14.2961 16.5188 14.6401 16.1508 14.9201C15.7828 15.2001 15.4268 15.3401 15.0828 15.3401C14.8188 15.3401 14.5748 15.2521 14.3508 15.0761C14.1348 14.8921 13.9708 14.6441 13.8588 14.3321C13.4428 15.0041 12.9188 15.3401 12.2868 15.3401ZM12.7188 14.1281C12.8948 14.1281 13.0628 14.0241 13.2228 13.8161C13.3828 13.6081 13.4988 13.3321 13.5708 12.9881L14.0148 10.7801C13.6788 10.7881 13.3668 10.9161 13.0788 11.1641C12.7988 11.4041 12.5748 11.7241 12.4068 12.1241C12.2388 12.5241 12.1548 12.9481 12.1548 13.3961C12.1548 13.6441 12.2028 13.8281 12.2988 13.9481C12.4028 14.0681 12.5428 14.1281 12.7188 14.1281Z" fill="white"/>
<path d="M9.88761 12.6039C9.99161 12.6039 10.0716 12.6519 10.1276 12.7479C10.1916 12.8439 10.2236 12.9759 10.2236 13.1439C10.2236 13.4559 10.1476 13.7039 9.99561 13.8879C9.54761 14.4239 9.11161 14.7999 8.68761 15.0159C8.27161 15.2319 7.76761 15.3399 7.17561 15.3399C6.75961 15.3399 6.37561 15.2879 6.02361 15.1839C5.67161 15.0799 5.24361 14.9239 4.73961 14.7159C4.30761 14.5319 3.92361 14.3839 3.58761 14.2719C3.21961 14.6719 2.88761 14.9519 2.59161 15.1119C2.29561 15.2639 1.98361 15.3399 1.65561 15.3399C1.21561 15.3399 0.863613 15.2399 0.599613 15.0399C0.335613 14.8319 0.203613 14.5639 0.203613 14.2359C0.203613 13.9879 0.283613 13.7599 0.443613 13.5519C0.611613 13.3439 0.843613 13.1799 1.13961 13.0599C1.43561 12.9399 1.77961 12.8799 2.17161 12.8799C2.39561 12.8799 2.56361 12.8839 2.67561 12.8919C4.24361 10.9399 5.65961 8.87993 6.92361 6.71193C6.23561 6.59193 5.53561 6.53193 4.82361 6.53193C3.90361 6.53193 3.22761 6.63993 2.79561 6.85593C2.37161 7.06393 2.15961 7.39593 2.15961 7.85193C2.15961 7.98793 2.17561 8.10393 2.20761 8.19993C2.23961 8.29593 2.28761 8.40793 2.35161 8.53593C2.42361 8.67993 2.45961 8.78393 2.45961 8.84793C2.45961 9.00793 2.38361 9.14393 2.23161 9.25593C2.08761 9.35993 1.91961 9.41193 1.72761 9.41193C1.52761 9.41193 1.36361 9.35193 1.23561 9.23193C1.08361 9.09593 0.959613 8.91193 0.863613 8.67993C0.775613 8.43993 0.731613 8.17193 0.731613 7.87593C0.731613 6.93993 1.11961 6.24793 1.89561 5.79993C2.67161 5.35193 3.69561 5.12793 4.96761 5.12793C5.59961 5.12793 6.24361 5.16393 6.89961 5.23593C7.56361 5.30793 8.18361 5.42393 8.75961 5.58393C8.99961 5.64793 9.15961 5.73993 9.23961 5.85993C9.31961 5.97193 9.35961 6.11993 9.35961 6.30393C9.35961 6.51993 9.30361 6.68793 9.19161 6.80793C9.07961 6.92793 8.92361 6.98793 8.72361 6.98793H8.63961C7.77561 8.39593 6.89961 9.74793 6.01161 11.0439C5.29961 12.0759 4.79961 12.7759 4.51161 13.1439C4.97561 13.2479 5.37961 13.3439 5.72361 13.4319C6.14761 13.5439 6.48761 13.6279 6.74361 13.6839C7.00761 13.7319 7.23561 13.7559 7.42761 13.7559C7.89161 13.7559 8.28761 13.6799 8.61561 13.5279C8.95161 13.3679 9.26761 13.1159 9.56361 12.7719C9.65961 12.6599 9.76761 12.6039 9.88761 12.6039Z" fill="white"/>
</svg>
